# xmcd
# 
# Track frame offsets:
#     150
#     19142
#     33255
#     52100
#     58632
#     91287
#     107805
#     118240
#     130252
#     138735
#     158177
# 
# Disc length: 2303
# 
# Revision: 1
# Processed by: cddbd v1.5.2PL0 Copyright (c) Steve Scherf et al.
# Submitted via: BonkEnc v1.0
# 
DISCID=9c08fd0b
DTITLE=Ari Borger - Blues da Garantia
DYEAR=0
DGENRE=Blues
TTITLE0=B3 Explosion
TTITLE1=Blues da Garantia
TTITLE2=Dust My Broom
TTITLE3=Hot Boogie
TTITLE4=A Man And The Blues
TTITLE5=Crazy Kind Of Woman
TTITLE6=B3 Groove
TTITLE7=Cuica Blues
TTITLE8=Borger's Boogie
TTITLE9=Trouble Blues
TTITLE10=Song For Fess
EXTD=
EXTT0=
EXTT1=
EXTT2=
EXTT3=
EXTT4=
EXTT5=
EXTT6=
EXTT7=
EXTT8=
EXTT9=
EXTT10=
PLAYORDER=
